# xmcd
#
# Track frame offsets: 
#        150
#        40519
#        74316
#        121944
#        154736
#        172117
#        188583
#        234188
#        244273
#        269274
#
# Disc length: 3903 seconds
#
# Revision: 1
# Processed by: cddbd v1.5.2PL0 Copyright (c) Steve Scherf et al.
# Submitted via: ExactAudioCopy v0.99pb5
#
DISCID=7c0f3d0a
DTITLE=David Robertson - Orchestre National de Lyon - Steve Reich - Di
DTITLE=fferent trains, Triple quartet, The four sections
DYEAR=2003
DGENRE=Avantgarde
TTITLE0=Different trains 1
TTITLE1=Different trains 2
TTITLE2=Different trains 3
TTITLE3=Triple quartet 1
TTITLE4=Triple quartet 2
TTITLE5=Triple quartet 3
TTITLE6=The four sections 1
TTITLE7=The four sections 2
TTITLE8=The four sections 3
TTITLE9=The four sections 4
EXTD=
EXTT0=
EXTT1=
EXTT2=
EXTT3=
EXTT4=
EXTT5=
EXTT6=
EXTT7=
EXTT8=
EXTT9=
PLAYORDER=
